HIERARCHY
ROOT joint_0
{
	OFFSET 0.000000 0.000000 0.000000
	CHANNELS 6 Xposition Yposition Zposition Zrotation Yrotation Xrotation 
	JOINT joint_1
	{
		OFFSET 14.113007 -2.961990 123.953979
		CHANNELS 3 Zrotation Yrotation Xrotation
		JOINT joint_2
		{
			OFFSET 0.764000 -2.434006 113.871948
			CHANNELS 3 Zrotation Yrotation Xrotation
			JOINT joint_3
			{
				OFFSET 0.186996 -2.169998 113.753052
				CHANNELS 3 Zrotation Yrotation Xrotation
				JOINT joint_4
				{
					OFFSET 16.096001 -2.720001 160.853027
					CHANNELS 3 Zrotation Yrotation Xrotation
					JOINT joint_5
					{
						OFFSET 34.392006 -0.188995 92.567017
						CHANNELS 3 Zrotation Yrotation Xrotation
						End Site
						{
							OFFSET 0.000000 0.000000 0.000000
						}
					}
				}
				JOINT joint_6
				{
					OFFSET 9.183998 -36.684006 89.597046
					CHANNELS 3 Zrotation Yrotation Xrotation
					JOINT joint_7
					{
						OFFSET 0.486000 -164.365997 -28.984009
						CHANNELS 3 Zrotation Yrotation Xrotation
						JOINT joint_8
						{
							OFFSET 38.899002 -34.967010 -291.651978
							CHANNELS 3 Zrotation Yrotation Xrotation
							JOINT joint_9
							{
								OFFSET 41.714005 -45.890991 -258.857056
								CHANNELS 3 Zrotation Yrotation Xrotation
								End Site
								{
									OFFSET 0.000000 0.000000 0.000000
								}
							}
						}
					}
				}
				JOINT joint_10
				{
					OFFSET 8.867004 33.650002 90.817993
					CHANNELS 3 Zrotation Yrotation Xrotation
					JOINT joint_11
					{
						OFFSET 0.018997 164.299999 -29.368042
						CHANNELS 3 Zrotation Yrotation Xrotation
						JOINT joint_12
						{
							OFFSET 29.440994 30.887997 -293.216919
							CHANNELS 3 Zrotation Yrotation Xrotation
							JOINT joint_13
							{
								OFFSET 46.174011 54.490005 -256.422058
								CHANNELS 3 Zrotation Yrotation Xrotation
								End Site
								{
									OFFSET 0.000000 0.000000 0.000000
								}
							}
						}
					}
				}
			}
		}
	}
	JOINT joint_14
	{
		OFFSET -2.264000 -89.466995 -116.150024
		CHANNELS 3 Zrotation Yrotation Xrotation
		JOINT joint_15
		{
			OFFSET -16.400993 -17.452988 -493.781982
			CHANNELS 3 Zrotation Yrotation Xrotation
			JOINT joint_16
			{
				OFFSET -50.497004 -13.404022 -424.754013
				CHANNELS 3 Zrotation Yrotation Xrotation
				JOINT joint_17
				{
					OFFSET 198.546007 -19.341003 -89.309000
					CHANNELS 3 Zrotation Yrotation Xrotation
					End Site
					{
						OFFSET 0.000000 0.000000 0.000000
					}
				}
			}
		}
	}
	JOINT joint_18
	{
		OFFSET -0.867996 96.016006 -110.817993
		CHANNELS 3 Zrotation Yrotation Xrotation
		JOINT joint_19
		{
			OFFSET -10.130997 24.658998 -493.645020
			CHANNELS 3 Zrotation Yrotation Xrotation
			JOINT joint_20
			{
				OFFSET -48.871004 19.434999 -424.714005
				CHANNELS 3 Zrotation Yrotation Xrotation
				JOINT joint_21
				{
					OFFSET 195.579996 24.926001 -94.327003
					CHANNELS 3 Zrotation Yrotation Xrotation
					End Site
					{
						OFFSET 0.000000 0.000000 0.000000
					}
				}
			}
		}
	}
}
MOTION
Frames: 15
Frame Time: 0.016667
-2967.178223 944.564087 1141.737061 -1.223300 -0.431111 -0.385081 -0.849505 -3.033726 2.319461 -0.660779 0.519596 -0.599980 -0.676259 -0.720728 0.338957 -0.631315 -3.092601 1.711618 0.000000 0.000000 0.000000 0.492553 2.786052 -1.296282 -0.153909 2.896253 -1.680938 0.922050 -7.452714 -2.794186 0.000000 0.000000 0.000000 -1.194645 0.992096 0.883453 0.951517 1.370469 -0.186787 1.714333 3.806474 4.766850 0.000000 0.000000 0.000000 4.172548 -4.453007 0.529083 3.146639 21.347294 6.759006 5.855474 -7.409708 1.767737 0.000000 0.000000 0.000000 -3.153029 5.673369 -0.149596 -3.475291 1.648800 -1.699640 -3.839357 -4.375335 -1.263234 0.000000 0.000000 0.000000 
-2960.885010 943.823669 1143.185059 -1.506419 -0.300727 -0.482827 -0.805855 -3.150296 2.394296 -0.546693 0.531755 -0.566285 -0.556555 -0.745117 0.329044 -0.631080 -2.953687 1.703642 0.000000 0.000000 0.000000 0.175772 2.875026 -1.337288 0.103100 2.885764 -1.669519 1.628516 -10.808241 -2.314073 0.000000 0.000000 0.000000 -0.884165 0.990091 1.098819 0.709248 1.271590 -0.090171 1.231789 2.386152 3.869623 0.000000 0.000000 0.000000 4.682164 -6.869179 -0.512320 3.460863 25.936080 8.617624 7.197922 -6.776417 2.345154 0.000000 0.000000 0.000000 -3.151409 5.985256 0.120835 -3.573182 1.441030 -1.887752 -3.926593 -3.939978 -1.353287 0.000000 0.000000 0.000000 
-2954.210205 942.868591 1144.394043 -1.795888 -0.082812 -0.497359 -0.785424 -3.382702 2.390636 -0.430424 0.539600 -0.517156 -0.433802 -0.789989 0.324586 -0.625820 -2.850824 1.681596 0.000000 0.000000 0.000000 -0.121037 3.045703 -1.378151 0.370501 2.961540 -1.643459 2.358200 -14.261989 -1.827126 0.000000 0.000000 0.000000 -0.515840 1.097472 1.381391 0.431207 1.265113 0.051112 0.644877 0.676602 2.723241 0.000000 0.000000 0.000000 5.122130 -9.279251 -1.631520 3.808921 30.170266 10.258427 8.677324 -5.943582 2.980206 0.000000 0.000000 0.000000 -3.140368 6.137230 0.279078 -3.656642 1.404530 -2.031694 -4.007989 -3.583967 -1.429365 0.000000 0.000000 0.000000 
-2947.120117 941.654785 1145.170044 -2.135832 0.351890 -0.422823 -0.797109 -3.882932 2.361051 -0.288203 0.559927 -0.510454 -0.283550 -0.881804 0.326966 -0.618243 -2.796315 1.652723 0.000000 0.000000 0.000000 -0.383667 3.341176 -1.451720 0.649603 3.170951 -1.554509 3.112006 -17.900893 -1.386100 0.000000 0.000000 0.000000 -0.077548 1.370010 1.772365 0.106788 1.403012 0.284924 -0.092438 -1.491609 1.251867 0.000000 0.000000 0.000000 5.595111 -11.819709 -2.803345 4.308677 34.190306 11.772417 10.504712 -5.114863 3.736295 0.000000 0.000000 0.000000 -3.116007 5.968557 0.314144 -3.693057 1.601127 -2.129494 -4.057214 -3.381166 -1.470002 0.000000 0.000000 0.000000 
-2939.649414 940.226257 1145.708008 -2.507435 0.883832 -0.292430 -0.845122 -4.509762 2.305089 -0.125183 0.580244 -0.509670 -0.110495 -0.995254 0.334714 -0.608021 -2.781162 1.616192 0.000000 0.000000 0.000000 -0.625763 3.716172 -1.520040 0.935430 3.468845 -1.461089 3.884384 -21.669855 -0.935689 0.000000 0.000000 0.000000 0.419515 1.747227 2.198841 -0.235222 1.632638 0.614660 -0.920625 -3.976163 -0.442254 0.000000 0.000000 0.000000 5.987096 -14.416405 -4.010065 4.853514 37.960201 13.043584 12.466955 -4.250520 4.532821 0.000000 0.000000 0.000000 -3.090610 5.637148 0.267206 -3.698187 1.966000 -2.197833 -4.083605 -3.263480 -1.488415 0.000000 0.000000 0.000000 
-2931.607666 938.520813 1146.121948 -2.838119 1.223660 -0.166695 -0.884069 -4.898557 2.269558 0.008729 0.584914 -0.493956 0.031593 -1.072206 0.349395 -0.598686 -2.838514 1.583302 0.000000 0.000000 0.000000 -0.790044 4.051580 -1.546897 1.193094 3.751226 -1.380228 4.580086 -25.052399 -0.439100 0.000000 0.000000 0.000000 0.834261 2.076723 2.517896 -0.516242 1.841725 0.957927 -1.639976 -6.210510 -1.944673 0.000000 0.000000 0.000000 6.000608 -16.587174 -5.001634 5.066272 40.810290 13.406537 13.399250 -3.730783 4.906276 0.000000 0.000000 0.000000 -3.064954 5.459930 0.214439 -3.685656 2.515376 -2.271192 -4.106005 -3.238948 -1.493367 0.000000 0.000000 0.000000 
-2922.834229 936.546448 1146.477051 -3.144057 1.211426 -0.108228 -0.857439 -4.881639 2.360133 0.093516 0.587059 -0.491990 0.120571 -1.078397 0.374339 -0.590287 -2.999850 1.554227 0.000000 0.000000 0.000000 -0.828129 4.334401 -1.562327 1.412556 4.014301 -1.282320 5.195453 -28.040752 0.159692 0.000000 0.000000 0.000000 1.128381 2.320197 2.703909 -0.726221 2.000848 1.246707 -2.203721 -8.070253 -3.111465 0.000000 0.000000 0.000000 5.459347 -18.141623 -5.585549 4.656062 42.600652 12.483176 12.367469 -3.784310 4.492316 0.000000 0.000000 0.000000 -3.001956 5.610133 0.223405 -3.642127 3.286231 -2.372014 -4.120717 -3.333310 -1.479984 0.000000 0.000000 0.000000 
-2913.488525 934.294128 1146.708984 -3.465980 1.033534 -0.095390 -0.781436 -4.680038 2.553660 0.153256 0.603573 -0.515548 0.182621 -1.051521 0.403404 -0.582400 -3.230841 1.526960 0.000000 0.000000 0.000000 -0.787499 4.591782 -1.575432 1.605671 4.273891 -1.143914 5.742294 -30.691729 0.817596 0.000000 0.000000 0.000000 1.342450 2.526002 2.822351 -0.888631 2.146780 1.492699 -2.670906 -9.689948 -4.101961 0.000000 0.000000 0.000000 4.637065 -19.350806 -5.880983 3.888161 43.414436 10.746232 10.125699 -4.208052 3.587480 0.000000 0.000000 0.000000 -2.910110 5.898090 0.277704 -3.562358 4.232195 -2.489802 -4.121508 -3.507859 -1.450094 0.000000 0.000000 0.000000 
-2903.861816 931.681641 1146.744019 -3.784330 0.930892 -0.081127 -0.693724 -4.535749 2.741362 0.200847 0.627877 -0.544102 0.230771 -1.028037 0.426509 -0.578415 -3.467701 1.511743 0.000000 0.000000 0.000000 -0.759919 4.775618 -1.568166 1.779613 4.459288 -0.928681 6.162047 -32.587364 1.418207 0.000000 0.000000 0.000000 1.442817 2.676952 2.904517 -0.998598 2.267495 1.675675 -3.020022 -10.875423 -4.973897 0.000000 0.000000 0.000000 3.963938 -20.441694 -6.097849 3.217895 43.048944 8.875253 7.970581 -4.801186 2.701965 0.000000 0.000000 0.000000 -2.845168 6.086164 0.350519 -3.468697 5.246893 -2.614956 -4.123368 -3.689329 -1.420430 0.000000 0.000000 0.000000 
-2894.136963 928.692444 1146.645996 -4.083945 1.008056 -0.041130 -0.604922 -4.516757 2.864315 0.234593 0.647770 -0.556673 0.261592 -1.025178 0.438976 -0.583118 -3.703053 1.523488 0.000000 0.000000 0.000000 -0.762914 4.851836 -1.547787 1.943211 4.526468 -0.543035 6.416391 -33.417079 1.912752 0.000000 0.000000 0.000000 1.399061 2.757986 2.968785 -1.056755 2.351253 1.767105 -3.236855 -11.481218 -5.760987 0.000000 0.000000 0.000000 3.563495 -21.470864 -6.337422 2.773389 41.223294 6.994313 6.308232 -5.445141 2.003041 0.000000 0.000000 0.000000 -2.833319 6.073520 0.412655 -3.369331 6.267804 -2.722903 -4.127233 -3.819138 -1.399358 0.000000 0.000000 0.000000 
-2884.130859 925.343140 1146.350952 -4.320801 1.135472 0.027341 -0.520449 -4.508864 2.926523 0.237248 0.651079 -0.551521 0.257965 -1.025446 0.446402 -0.592360 -3.940520 1.550609 0.000000 0.000000 0.000000 -0.777187 4.872247 -1.538700 2.094996 4.531687 -0.045451 6.559174 -33.524694 2.350375 0.000000 0.000000 0.000000 1.242138 2.789734 3.016921 -1.079245 2.410059 1.772744 -3.352970 -11.655149 -6.448710 0.000000 0.000000 0.000000 3.204733 -22.229638 -6.533344 2.318280 38.034007 4.976685 4.766931 -5.801618 1.370597 0.000000 0.000000 0.000000 -2.864352 5.977059 0.464971 -3.275876 7.362456 -2.827576 -4.155095 -3.937166 -1.390888 0.000000 0.000000 0.000000 
-2873.593018 921.601868 1145.587036 -4.474979 1.220088 0.117944 -0.462052 -4.514026 2.949799 0.209138 0.656031 -0.547371 0.223296 -1.022689 0.448664 -0.595305 -4.136018 1.561811 0.000000 0.000000 0.000000 -0.828969 4.919379 -1.565585 2.231186 4.556874 0.398639 6.672434 -33.471298 2.749026 0.000000 0.000000 0.000000 1.043840 2.808653 3.060229 -1.084889 2.464974 1.720676 -3.413969 -11.634311 -7.016849 0.000000 0.000000 0.000000 2.832220 -22.602297 -6.632383 1.820281 34.086078 3.117379 3.415930 -5.663510 0.849374 0.000000 0.000000 0.000000 -2.930551 5.873759 0.544280 -3.201488 8.621775 -2.982843 -4.242068 -4.136047 -1.397517 0.000000 0.000000 0.000000 
-2862.369873 917.451477 1144.406982 -4.595353 1.300566 0.194110 -0.429677 -4.620311 3.025675 0.160714 0.704518 -0.591004 0.169498 -1.017575 0.439777 -0.583643 -4.286962 1.534759 0.000000 0.000000 0.000000 -0.938654 5.011493 -1.643413 2.352956 4.615587 0.766932 6.760659 -33.307237 3.058816 0.000000 0.000000 0.000000 0.805654 2.824700 3.105623 -1.072473 2.525263 1.585813 -3.408143 -11.366147 -7.428694 0.000000 0.000000 0.000000 2.433178 -22.557877 -6.494820 1.281120 29.020991 1.324756 2.216762 -5.059744 0.425164 0.000000 0.000000 0.000000 -2.976143 5.790891 0.666527 -3.097833 9.939765 -3.159508 -4.330618 -4.377733 -1.397843 0.000000 0.000000 0.000000 
-2850.615723 912.908081 1142.758057 -4.542285 1.298820 0.327483 -0.444769 -4.668580 3.002864 0.049726 0.716369 -0.615361 0.050962 -1.006117 0.427635 -0.565685 -4.394199 1.491806 0.000000 0.000000 0.000000 -1.085013 5.131714 -1.762317 2.456153 4.695597 1.084904 6.818274 -32.997150 3.327069 0.000000 0.000000 0.000000 0.525447 2.826361 3.138602 -1.047837 2.579632 1.402938 -3.351965 -10.895347 -7.728008 0.000000 0.000000 0.000000 1.971135 -21.957511 -6.328413 0.739625 22.944836 -0.251119 1.211850 -3.673247 0.147472 0.000000 0.000000 0.000000 -3.083339 5.727494 0.781701 -3.046298 11.424350 -3.361395 -4.510490 -4.652140 -1.432374 0.000000 0.000000 0.000000 
-2838.541260 907.987488 1140.214966 -4.266468 1.067663 0.544656 -0.504743 -4.513528 2.773181 -0.115739 0.642201 -0.558184 -0.122860 -0.984132 0.428237 -0.557481 -4.419142 1.472441 0.000000 0.000000 0.000000 -1.235660 5.314572 -1.935428 2.537907 4.842947 1.286840 6.919376 -32.982331 3.717011 0.000000 0.000000 0.000000 0.270974 2.822026 3.154177 -1.035431 2.622572 1.268327 -3.325960 -10.603287 -7.999719 0.000000 0.000000 0.000000 1.540343 -20.971915 -6.437631 0.289682 17.888374 -1.048713 0.510483 -1.954295 0.022839 0.000000 0.000000 0.000000 -3.377052 5.638330 0.961596 -3.157253 13.458112 -3.746485 -4.977396 -5.091007 -1.567601 0.000000 0.000000 0.000000 
